<?xml version="1.0" encoding="UTF-8"?>
<svg xmlns="http://www.w3.org/2000/svg" viewBox="0 0 35.86 31.94">
    <defs>
        <style>
            .cls-1{fill:#5ec9db;}.cls-1,.cls-2,.cls-3,.cls-4{fill-rule:evenodd;}.cls-2{fill:#99a041;}.cls-3{fill:#3d8054;}.cls-4{fill:#dd7053;}.cls-5{fill:#fefefe;}
        </style>
    </defs>
    <title>Ресурс 1</title>
    <g id="Слой_2" data-name="Слой 2">
        <g id="_1" data-name="1">
            <polygon class="cls-1" points="29.96 17.55 29.89 17.36 6.13 17.36 12.37 27.98 29.96 17.55"></polygon>
            <polygon class="cls-2" points="29.35 31.94 35.86 31.94 30.6 19.1 24.04 22.98 29.35 31.94"></polygon>
            <polygon class="cls-3" points="8.93 31.94 27.43 31.94 22.62 23.83 8.93 31.94"></polygon>
            <polygon class="cls-2" points="0 31.94 5.69 31.94 10.95 28.82 5.25 19.12 0 31.94"></polygon>
            <path class="cls-4"
                  d="M17.93,0a7.76,7.76,0,0,1,6.33,12.26c-1.75,2.41-4.34,5.21-6.33,7.52-2-2.31-4.58-5.11-6.33-7.52A7.76,7.76,0,0,1,17.93,0Z"></path>
            <circle class="cls-5" cx="17.93" cy="7.76" r="3.45"></circle>
        </g>
    </g>
</svg>
