<?xml version="1.0" encoding="UTF-8"?>
<svg xmlns="http://www.w3.org/2000/svg" viewBox="0 0 31.17 31.17">
    <defs>
        <style>
            .cls-1{fill:#61c3d3;}.cls-1,.cls-2,.cls-3,.cls-4{fill-rule:evenodd;}.cls-2{fill:#317d4d;}.cls-3{fill:#dd6b4d;}.cls-4{fill:#98a038;}
        </style>
    </defs>
    <title>Ресурс 2</title>
    <g id="Слой_2" data-name="Слой 2">
        <g id="_1" data-name="1">
            <path class="cls-1"
                  d="M26.19,5H5v21.2h21.2V5ZM12.92,18h0l4-4.36h.92V23.72H15.21V19.24l-2.14,2.24h-.29l-2.12-2.24v4.47H8V13.65H9L12.92,18Zm8.57-8.58h0c.31-.41.54-1.22-.23-1.22a.54.54,0,0,0-.6.6H19.33a1.86,1.86,0,0,1,2-2,1.92,1.92,0,0,1,1.62,3.11l-1.23,1.72h1.82V13H19.19V12.8Z"></path>
            <polygon class="cls-2"
                     points="20.89 28.04 3.13 28.04 3.13 10.29 0 10.29 0 29.61 0 31.17 1.57 31.17 20.89 31.17 20.89 28.04"></polygon>
            <path class="cls-3"
                  d="M28,22.58v3.25l-6-6L19.78,22l6,6H22.58v3.13h8.59V22.58ZM8.59,0H0V8.59H3.13V5.35l6.75,6.75L12.1,9.88,5.35,3.13H8.59Z"></path>
            <polygon class="cls-4"
                     points="29.61 0 10.29 0 10.29 3.13 28.04 3.13 28.04 20.89 31.18 20.89 31.18 1.57 31.18 0 29.61 0"></polygon>
        </g>
    </g>
</svg>
