<?xml version="1.0" encoding="UTF-8"?>
<svg xmlns="http://www.w3.org/2000/svg" viewBox="0 0 38.54 40.37">
    <defs>
        <style>
            .cls-1{fill:#98a038;}.cls-1,.cls-2,.cls-3,.cls-4{fill-rule:evenodd;}.cls-2{fill:#61c3d3;}.cls-3{fill:#dd6b4d;}.cls-4{fill:#317d4d;}
        </style>
    </defs>
    <title>Ресурс 6</title>
    <g id="Слой_2" data-name="Слой 2">
        <g id="_1" data-name="1">
            <path class="cls-1"
                  d="M29.66,8.25a8.88,8.88,0,0,1,2.68,17.34V29h-1.9v1.9h1.9v1.9h-1.9v1.9h1.9v1.9h-1.9v1.9h1.9v1.9H26.76V25.52a8.88,8.88,0,0,1,2.9-17.27ZM30,11.16h0a2.09,2.09,0,1,0,2.09,2.09A2.09,2.09,0,0,0,30,11.16Z"></path>
            <path class="cls-2"
                  d="M17.37,17.11,10.17,24,.33,13.61l7.2-6.86L4.75,3.84H20.93L20.11,20l-2.74-2.87Zm1.4-11.24h0a2.35,2.35,0,1,0-.08,3.32,2.35,2.35,0,0,0,.08-3.32ZM13.12,17.19h0l-5.6-5.88L5.17,13.55l5.6,5.88Z"></path>
            <path class="cls-3"
                  d="M0,35.05l16.09-15.4A8.68,8.68,0,0,1,27.88,7.39a9.72,9.72,0,0,0-1.62.45,8.94,8.94,0,0,0-2.41,1,5.9,5.9,0,0,0-3.7,10.89q.15.39.33.76a9.82,9.82,0,0,0,1.19,2.23q.22.31.47.6A8.65,8.65,0,0,1,18,21.67L9.89,29.44l1.93,2-2,1.91-1.93-2-2,1.91,1.93,2-2,1.91-1.93-2-2,1.91Z"></path>
            <path class="cls-4"
                  d="M18.85,2.52h0l0,0a8.14,8.14,0,0,1,11.47-.26h0l0,0a8.14,8.14,0,0,1,.26,11.47.82.82,0,1,1-1.17-1.14h0a6.51,6.51,0,0,0-.22-9.15l-.05-.05a6.51,6.51,0,0,0-9.15.22l0,0,0,0a6.49,6.49,0,0,0-1.57,2.92,6.56,6.56,0,0,0-.16,1,8.7,8.7,0,0,0-1,.84c-.21.2-.4.4-.58.61a8.17,8.17,0,0,1,2.19-6.55Zm0,0Zm0,0Zm11.51-.3Z"></path>
        </g>
    </g>
</svg>
