<?xml version="1.0" encoding="UTF-8"?>
<svg xmlns="http://www.w3.org/2000/svg" viewBox="0 0 195.3 179.69">
    <defs>
        <style>
            .cls-1{fill:#979f37;}.cls-1,.cls-2,.cls-3,.cls-4{fill-rule:evenodd;}.cls-2{fill:#317e4c;}.cls-3{fill:#61c2d2;}.cls-4{fill:#dd6b4d;}
        </style>
    </defs>
    <title>Ресурс 1</title>
    <g id="Слой_2" data-name="Слой 2">
        <g id="Слой_1-2" data-name="Слой 1">
            <path class="cls-1"
                  d="M0,57.88H187.1V78.79a14.62,14.62,0,0,0-22.68,6.31l-.18,0-.11,0-.43-.1-.11,0-.51-.11H163l-1.15-.23h0l-.6-.11-.57-.1h0l-.6-.1h0l-.59-.09h-.07l-.55-.07h-.11l-.5-.06-.16,0-.19,0-.42,0h-.13l-.51,0h-.18l-.49,0H156l-.43,0-.31,0h-.11l-.42,0h0l-.48,0h-4.51l-.33,0a52.75,52.75,0,0,0-9.76,1.4,14.62,14.62,0,1,0-25.15,14.24l-.19.2-.44.46-.44.46-.43.47-.42.47-.42.48-.41.48h0l-.4.48-.4.49-.39.5-.39.5-.38.5h0l-.38.51-.37.52-.36.52h0l-.36.52h0l-.35.53h0l-.35.53h0l-.34.54-.33.54-.33.55h0l-.32.55h0l-.31.55h0l-.31.56h0l-.3.56h0l-.29.57-.29.57h0l-.28.57h0l-.28.58h0l-.27.58h0l-.26.59h0l-.25.59h0l-.25.59-.24.6h0l-.23.6h0l-.23.6h0l-.22.61-.21.61h0l-.2.61h0l-.19.62-.19.62-.18.62h0l-.17.63-.17.63-.16.63-.15.64-.14.64-.14.64-.13.65-.12.65h0l-.11.65-.1.66-.1.66-.09.66-.08.66-.07.66-.07.67-.05.67h0l0,.67,0,.67,0,.68h0l0,.68v3h0v1a52.57,52.57,0,0,0,13.84,33l.22.23v0l.21.22.22.23h0l.21.22.22.23h0l.22.22.22.23.28.28H0V57.88Zm20.54,42h0v9.47H36.79V99.87Zm32.51,0h0v9.47H69.29V99.87ZM53,122h0v9.47H69.29V122Zm0-44.69h0v9.47H69.29V77.31Zm-32.51,0h0v9.47H36.79V77.31Zm0,44.69h0v9.47H36.79V122Zm65-44.69h0v9.47H101.8V77.31Z"></path>
            <path class="cls-2" d="M0,10.82H85.79a7.76,7.76,0,1,0,15.52,0H187.1V48.41H0Z"></path>
            <path class="cls-3"
                  d="M44.33,22.34V0h9.47V22.34Zm89.37,0h0V0h9.47V22.34Zm22.13,0h0V0h9.47V22.34Zm-44.69,0h0V0h9.47V22.34Zm-89.37,0h0V0h9.47V22.34Zm44.69,0h0V0h9.47V22.34Z"></path>
            <path class="cls-4"
                  d="M182.62,105.78a43.3,43.3,0,1,0,12.68,30.61,43.16,43.16,0,0,0-12.68-30.61Zm-26.74,4.47h0v23h22.79v9.47H146.41V110.25Z"></path>
        </g>
    </g>
</svg>
