<?xml version="1.0" encoding="UTF-8"?>
<svg xmlns="http://www.w3.org/2000/svg" viewBox="0 0 36.29 32.45">
    <defs>
        <style>
            .cls-1{fill:#317d4d;}.cls-1,.cls-2,.cls-3,.cls-4{fill-rule:evenodd;}.cls-2{fill:#61c3d3;}.cls-3{fill:#98a038;}.cls-4{fill:#dd6b4d;}
        </style>
    </defs>
    <title>Ресурс 3</title>
    <g id="Слой_2" data-name="Слой 2">
        <g id="_1" data-name="1">
            <path class="cls-1"
                  d="M30.86,28.37h5.43v-8.6a9.62,9.62,0,0,0-3.06.5,5.89,5.89,0,0,1,0,.67,6,6,0,0,1-.51,2.42,6.34,6.34,0,0,1-1.46,2.07q-.21.2-.44.38v2.56Zm-21.74,0H0v-8.6a9.38,9.38,0,0,1,6.45,2.52,8.33,8.33,0,0,1,2.67,6.08ZM0,0H9.12A8.33,8.33,0,0,1,6.45,6.08,9.38,9.38,0,0,1,0,8.6V0ZM27.17,0h9.12V8.6a9.38,9.38,0,0,1-6.45-2.52A8.33,8.33,0,0,1,27.17,0Z"></path>
            <path class="cls-2"
                  d="M22.19,28.37H10.75a9.6,9.6,0,0,0-.67-3.53H21.22a6.41,6.41,0,0,0,.55.59c.14.13.28.25.42.37Z"></path>
            <path class="cls-2" d="M3.74,18.86A11.32,11.32,0,0,0,0,18.23v-8.1A11.32,11.32,0,0,0,3.74,9.5Z"></path>
            <path class="cls-2"
                  d="M32.55,9.5a11.32,11.32,0,0,0,3.74.63v8.1a11.34,11.34,0,0,0-3.43.53l-.1-.25c-.06-.15-.13-.29-.21-.43Z"></path>
            <path class="cls-3"
                  d="M30.92,14.18v1.93a6.87,6.87,0,0,0-1.81-1,7.07,7.07,0,0,0-5.14,0,6.79,6.79,0,0,0-2.19,1.38,6.36,6.36,0,0,0-1.46,2.07,6,6,0,0,0,0,4.79H7.37a8.81,8.81,0,0,0-.92-1,9,9,0,0,0-1.07-.87V6.94a9.05,9.05,0,0,0,1.07-.87,8.84,8.84,0,0,0,.92-1H28.92a8.78,8.78,0,0,0,.92,1,9.06,9.06,0,0,0,1.07.87v7.24h0ZM9.84,8.86h0V10.4h7.85V8.86Zm0,6.16h0v1.54h7.85V15Zm0-3.08h0v1.54h7.85V11.94Z"></path>
            <path class="cls-2" d="M10.75,0H25.54a9.61,9.61,0,0,0,.67,3.53H10.08A9.61,9.61,0,0,0,10.75,0Z"></path>
            <path class="cls-4" d="M29.23,32.45v-5.7l-.12,0a7.1,7.1,0,0,1-5.28,0v5.7l2.38-1.88.32-.25.32.26Z"></path>
            <path class="cls-4"
                  d="M30.14,17.53a5.33,5.33,0,0,0-7.22,0,4.62,4.62,0,0,0,0,6.8,5.33,5.33,0,0,0,7.22,0,4.62,4.62,0,0,0,0-6.8Z"></path>
        </g>
    </g>
</svg>
