<?xml version="1.0" encoding="UTF-8"?>
<svg xmlns="http://www.w3.org/2000/svg" viewBox="0 0 39.19 38.41">
    <defs>
        <style>
            .cls-1{fill:#61c3d3;}.cls-1,.cls-2,.cls-3,.cls-5{fill-rule:evenodd;}.cls-2{fill:#dd6b4d;}.cls-3{fill:#317d4d;}.cls-4,.cls-5{fill:#98a038;}
        </style>
    </defs>
    <title>Ресурс 4</title>
    <g id="Слой_2" data-name="Слой 2">
        <g id="_1" data-name="1">
            <path class="cls-1"
                  d="M11.09,1.35h8.16A7.79,7.79,0,0,1,27,9.12v3.32h0a4.46,4.46,0,0,0,4.45,4.45h.16A7.41,7.41,0,0,1,39,24.27h0a7.42,7.42,0,0,1-6.25,7.3,5.92,5.92,0,1,0-10.12,2.2,6.89,6.89,0,0,1-6.31,4.16H9.57A6.89,6.89,0,0,1,2.7,31.07h0A6.89,6.89,0,0,1,9.57,24.2H13a3.66,3.66,0,0,0,0-7.32H11.23a5.93,5.93,0,0,0-7.9-8.12,7.79,7.79,0,0,1,7.76-7.41Zm2.2,4h0a.63.63,0,0,0-.57.67.63.63,0,0,0,.57.67H16a.63.63,0,0,0,.57-.67A.63.63,0,0,0,16,5.39Zm2.53,19.92h0a.68.68,0,0,0,0,1.35h2.67a.68.68,0,0,0,0-1.35Zm-4.36,2.9h0a.68.68,0,0,0,0,1.35h2.67a.68.68,0,0,0,0-1.35Zm2.15,3.3h0a.68.68,0,0,0,0,1.35h2.67a.68.68,0,0,0,0-1.35Zm6.85-13.87h0a.68.68,0,0,0,0,1.35h2.67a.68.68,0,0,0,0-1.35Zm5.83,1.75h0a.68.68,0,0,0,0,1.35H29a.68.68,0,0,0,0-1.35Zm-9.94-8h0a.68.68,0,0,0,0,1.35H19a.68.68,0,0,0,0-1.35Zm3.17-4.11h0a.63.63,0,0,0-.57.67.63.63,0,0,0,.57.67h2.67A.63.63,0,0,0,22.75,8a.63.63,0,0,0-.57-.67Z"></path>
            <path class="cls-2"
                  d="M28,38.41H26V31.08h2.37v7.32ZM6.88,23h-2V15.64H7.22V23ZM35,15.35H33V8h2.37v7.32Z"></path>
            <path class="cls-3" d="M10.31,9.77A6,6,0,1,0,12.08,14,6,6,0,0,0,10.31,9.77Z"></path>
            <circle class="cls-4" cx="34.11" cy="5.08" r="5.08"></circle>
            <path class="cls-5" d="M30.08,26.87a4.23,4.23,0,1,0,1.24,3A4.22,4.22,0,0,0,30.08,26.87Z"></path>
        </g>
    </g>
</svg>
